<?xml version="1.0" standalone="no"?>
<!DOCTYPE svg PUBLIC "-//W3C//DTD SVG 20010904//EN"
 "http://www.w3.org/TR/2001/REC-SVG-20010904/DTD/svg10.dtd">
<svg version="1.0" xmlns="http://www.w3.org/2000/svg"
 width="700.000000pt" height="700.000000pt" viewBox="0 0 700.000000 700.000000"
 preserveAspectRatio="xMidYMid meet">
<metadata>
Created by potrace 1.14, written by Peter Selinger 2001-2017
</metadata>
<g transform="translate(0.000000,700.000000) scale(0.100000,-0.100000)"
fill="#000000" stroke="none">
<path d="M5493 5623 l-1453 -3 0 -25 0 -25 1450 0 1450 0 0 -1000 0 -1000 30
0 30 0 0 1030 0 1030 -27 -2 c-16 -2 -682 -4 -1480 -5z"/>
<path d="M2195 4554 c-95 -10 -241 -37 -298 -56 -275 -90 -495 -320 -600 -628
-56 -163 -71 -267 -71 -500 -1 -186 2 -230 22 -328 98 -482 358 -763 788 -848
126 -25 439 -25 579 0 225 41 429 135 658 304 l57 43 0 494 0 495 -495 0 -495
0 0 -240 0 -240 215 0 215 0 0 -109 0 -110 -30 -21 c-53 -38 -184 -98 -250
-115 -48 -13 -93 -16 -170 -13 -138 6 -199 29 -284 109 -105 98 -147 210 -168
447 -13 148 -2 336 27 447 40 158 125 268 253 328 63 30 74 32 177 32 98 0
116 -3 165 -26 72 -34 133 -96 170 -175 18 -36 36 -61 43 -59 7 2 144 29 305
61 189 36 292 61 292 68 0 23 -47 151 -80 216 -119 238 -289 362 -555 405 -89
15 -393 27 -470 19z"/>
<path d="M4590 4553 c-343 -32 -589 -169 -759 -422 -214 -316 -263 -895 -112
-1312 62 -168 173 -331 299 -435 234 -194 670 -267 1037 -173 161 41 283 109
400 224 162 158 253 341 301 600 15 80 19 149 18 345 0 215 -3 257 -22 348
-93 427 -339 698 -720 792 -127 31 -315 46 -442 33z m196 -544 c166 -30 280
-153 331 -355 25 -101 25 -455 0 -574 -59 -271 -221 -399 -471 -369 -82 10
-144 40 -212 101 -110 101 -156 261 -157 543 0 271 39 425 136 531 102 112
221 151 373 123z"/>
<path d="M48 2408 c-2 -563 -1 -1025 2 -1028 3 -3 668 -4 1478 -2 l1472 2 0
25 0 25 -1450 0 -1450 0 0 1000 0 1000 -25 0 -24 0 -3 -1022z"/>
</g>
</svg>
